<svg width="20" height="20" viewBox="0 0 20 20" fill="none" xmlns="http://www.w3.org/2000/svg">
<path fill-rule="evenodd" clip-rule="evenodd" d="M10 3.125C6.20304 3.125 3.125 6.20304 3.125 10C3.125 13.797 6.20304 16.875 10 16.875C13.797 16.875 16.875 13.797 16.875 10C16.875 6.20304 13.797 3.125 10 3.125ZM1.875 10C1.875 5.51269 5.51269 1.875 10 1.875C14.4873 1.875 18.125 5.51269 18.125 10C18.125 14.4873 14.4873 18.125 10 18.125C5.51269 18.125 1.875 14.4873 1.875 10Z" fill="white"/>
<path fill-rule="evenodd" clip-rule="evenodd" d="M8.59795 6.7694C8.82886 6.51283 9.22404 6.49203 9.48061 6.72295L12.6056 9.53545C12.7373 9.65397 12.8125 9.82283 12.8125 10C12.8125 10.1772 12.7373 10.346 12.6056 10.4646L9.48061 13.2771C9.22404 13.508 8.82886 13.4872 8.59795 13.2306C8.36703 12.974 8.38783 12.5789 8.6444 12.3479L11.2532 10L8.6444 7.65206C8.38783 7.42115 8.36703 7.02597 8.59795 6.7694Z" fill="white"/>
</svg>
